# xmcd
#
# Track frame offsets:
# 182
# 14597
# 34542
# 48182
# 59950
# 73992
# 87865
# 105355
# 123095
# 134775
# 148695
# 162035
# 177242
# 193742
# 207925
# 226157
# 240190
# 251622
# 269215
# 284620
# 301387
# 314940
#
# Disc length: 4362 seconds
#
#
# Revision: 8
# Processed by: cddbd v1.5.2PL0 Copyright (c) Steve Scherf et al.
# Submitted via: FreeRIP 2.92 
#
DISCID=50110816
DTITLE=Milionário e José Rico - Dose Dupla
DYEAR=0
DGENRE=Country
TTITLE0=Minha Culpa
TTITLE1=Sonhei com Você
TTITLE2=Por que Recordação
TTITLE3=Entrevista
TTITLE4=Fim da Estrada
TTITLE5=Amor Infinito
TTITLE6=Meu Mundo Vazio (Sereia)
TTITLE7=Meu Tesouro
TTITLE8=Segredo Atroz
TTITLE9=Por Favor
TTITLE10=Velho Confidente
TTITLE11=Escravo do Amor
TTITLE12=Sonho de um Caminhoneiro
TTITLE13=Mundo Fantasia
TTITLE14=Compreensão
TTITLE15=Rotina da Vida
TTITLE16=Reconciliação
TTITLE17=Homens
TTITLE18=Ninguém é de Ninguém
TTITLE19=Conselho de Amigo
TTITLE20=Pombinha Mensageira
TTITLE21=Águas Passadas
EXTD=ID3G:   2
EXTT0=
EXTT1=
EXTT2=
EXTT3=
EXTT4=
EXTT5=
EXTT6=
EXTT7=
EXTT8=
EXTT9=
EXTT10=
EXTT11=
EXTT12=
EXTT13=
EXTT14=
EXTT15=
EXTT16=
EXTT17=
EXTT18=
EXTT19=
EXTT20=
EXTT21=
PLAYORDER=
